<svg xmlns="http://www.w3.org/2000/svg" width="1024" height="1536" viewBox="0 0 1024 1536" fill="none" stroke="#8a8f98" stroke-width="6" stroke-linecap="round">
  <!-- profile facing left -->
  <path d="M300 470 C 300 300 420 176 560 176 C 720 176 830 300 830 480 C 830 610 800 700 756 780 C 736 818 730 860 742 900 C 700 936 640 952 586 944 C 566 992 520 1024 470 1030"/>
  <!-- face profile: forehead, nose, lips, chin -->
  <path d="M300 470 C 292 520 296 556 286 584 C 276 610 258 630 252 652 C 248 668 260 676 276 678 C 272 700 280 708 274 722 C 288 730 282 742 278 752 C 292 774 320 776 352 768 C 372 794 404 810 440 812 C 452 892 462 962 470 1030"/>
  <!-- neck / shoulder -->
  <path d="M470 1030 C 480 1090 484 1130 480 1170 C 560 1230 760 1300 928 1440"/>
  <path d="M742 900 C 760 990 780 1060 810 1120"/>
  <!-- ear -->
  <path d="M560 640 C 600 610 640 640 626 690 C 616 728 580 750 552 738 C 536 730 534 700 544 676"/>
  <!-- hairline -->
  <path d="M330 380 C 420 330 560 330 660 372" stroke-dasharray="14 10"/>
  <path d="M660 372 C 700 480 690 560 640 620" stroke-dasharray="14 10"/>
</svg>